<svg width="76" height="62" viewBox="0 0 76 62" fill="none" xmlns="http://www.w3.org/2000/svg">
<path fill-rule="evenodd" clip-rule="evenodd" d="M0 14.5C0 6.49187 6.49187 0 14.5 0H61.5C69.5081 0 76 6.49187 76 14.5V47.5C76 55.5081 69.5081 62 61.5 62H14.5C6.49187 62 0 55.5081 0 47.5V14.5ZM14.5 9C11.4624 9 9 11.4624 9 14.5V47.5C9 50.5376 11.4624 53 14.5 53H61.5C64.5376 53 67 50.5376 67 47.5V14.5C67 11.4624 64.5376 9 61.5 9H14.5Z" fill="#808080"/>
<path fill-rule="evenodd" clip-rule="evenodd" d="M47.6777 20.8787C48.8492 22.0503 48.8492 23.9497 47.6777 25.1213L42.0208 30.7782L47.6777 36.435C48.8492 37.6066 48.8492 39.5061 47.6777 40.6777C46.5061 41.8492 44.6066 41.8492 43.435 40.6777L37.7782 35.0208L32.1213 40.6777C30.9497 41.8492 29.0503 41.8492 27.8787 40.6777C26.7071 39.5061 26.7071 37.6066 27.8787 36.435L33.5355 30.7782L27.8787 25.1213C26.7071 23.9497 26.7071 22.0503 27.8787 20.8787C29.0503 19.7071 30.9497 19.7071 32.1213 20.8787L37.7782 26.5355L43.435 20.8787C44.6066 19.7071 46.5061 19.7071 47.6777 20.8787Z" fill="#808080"/>
</svg>
