<svg width="25.14" height="16" viewBox="0 0 22 14" fill="none" xmlns="http://www.w3.org/2000/svg">
<path d="M7.01038 6C8.67612 6 10.0107 4.66 10.0107 3C10.0107 1.34 8.67612 0 7.01038 0C5.34464 0 4 1.34 4 3C4 4.66 5.34464 6 7.01038 6Z" fill="#DADADA"/>
<path d="M7.02422 8C4.68616 8 0 9.17 0 11.5V13C0 13.55 0.451557 14 1.00346 14H13.045C13.5969 14 14.0484 13.55 14.0484 13V11.5C14.0484 9.17 9.36228 8 7.02422 8Z" fill="#DADADA"/>
<path d="M15.0104 6C16.6761 6 18.0107 4.66 18.0107 3C18.0107 1.34 16.6761 0 15.0104 0C13.3446 0 12 1.34 12 3C12 4.66 13.3446 6 15.0104 6Z" fill="#DADADA"/>
<path d="M14.9734 8C14.6824 8 14.3512 8.02 14 8.05C14.0201 8.06 14.0301 8.08 14.0401 8.09C15.1841 8.92 15.9768 10.03 15.9768 11.5V13C15.9768 13.35 15.9066 13.69 15.7962 14H20.9941C21.546 14 21.9976 13.55 21.9976 13V11.5C21.9976 9.17 17.3114 8 14.9734 8Z" fill="#DADADA"/>
</svg>
